<svg width="97" height="109" viewBox="0 0 97 109" fill="none" xmlns="http://www.w3.org/2000/svg">
<path d="M48.5 109L6.49777 27.25L90.5022 27.25L48.5 109Z" fill="#00BEFA"/>
<path d="M20.48 40C22.6133 40 24.2533 40.58 25.4 41.74C26.56 42.8867 27.14 44.5333 27.14 46.68C27.14 48.16 26.8667 49.4533 26.32 50.56C25.7733 51.6533 24.9933 52.5 23.98 53.1C22.9667 53.7 21.78 54 20.42 54H15.9C15.46 54 15.24 53.82 15.24 53.46V52.96C15.24 52.6 15.46 52.42 15.9 52.42H16.42V41.58H15.9C15.46 41.58 15.24 41.4 15.24 41.04V40.54C15.24 40.18 15.46 40 15.9 40H20.48ZM20.24 52.42C21.8667 52.42 23.1133 51.9267 23.98 50.94C24.86 49.9533 25.3 48.5533 25.3 46.74C25.3 44.9933 24.8933 43.7 24.08 42.86C23.2667 42.0067 22.0267 41.58 20.36 41.58H18.22V52.42H20.24ZM38.5322 48.5C38.5322 48.5667 38.5122 48.86 38.4722 49.38H31.3722C31.4389 50.3933 31.7322 51.1933 32.2522 51.78C32.7722 52.3533 33.4655 52.64 34.3322 52.64C34.9189 52.64 35.3855 52.5467 35.7322 52.36C36.0789 52.1733 36.4055 51.84 36.7122 51.36C36.8189 51.2 36.9189 51.0867 37.0122 51.02C37.1189 50.9533 37.2389 50.92 37.3722 50.92C37.5722 50.92 37.7455 50.9867 37.8922 51.12C38.0522 51.24 38.1322 51.3933 38.1322 51.58C38.1322 51.8333 38.0389 52.0933 37.8522 52.36C37.4655 52.9867 36.9855 53.4533 36.4122 53.76C35.8389 54.0533 35.1255 54.2 34.2722 54.2C33.3255 54.2 32.4922 53.98 31.7722 53.54C31.0655 53.1 30.5122 52.48 30.1122 51.68C29.7255 50.88 29.5322 49.96 29.5322 48.92C29.5322 47.8933 29.7255 46.9933 30.1122 46.22C30.4989 45.4467 31.0455 44.8533 31.7522 44.44C32.4589 44.0133 33.2789 43.8 34.2122 43.8C35.5055 43.8 36.5455 44.2133 37.3322 45.04C38.1322 45.8667 38.5322 47.02 38.5322 48.5ZM34.1722 45.28C33.3855 45.28 32.7522 45.52 32.2722 46C31.8055 46.4667 31.5189 47.1467 31.4122 48.04H36.7122C36.6989 46.2 35.8522 45.28 34.1722 45.28ZM41.8669 48.22C41.6269 48.22 41.4469 48.16 41.3269 48.04C41.2069 47.92 41.1469 47.76 41.1469 47.56V47.32C41.1469 47.1067 41.2069 46.94 41.3269 46.82C41.4469 46.7 41.6269 46.64 41.8669 46.64H48.7469C48.9869 46.64 49.1669 46.7 49.2869 46.82C49.4069 46.94 49.4669 47.1067 49.4669 47.32V47.56C49.4669 47.76 49.4069 47.92 49.2869 48.04C49.1669 48.16 48.9869 48.22 48.7469 48.22H41.8669ZM47.3931 74.14C47.6198 74.14 47.8131 74.2067 47.9731 74.34C48.1331 74.4733 48.2131 74.64 48.2131 74.84C48.2131 75.12 48.1131 75.4133 47.9131 75.72C47.4065 76.5467 46.7731 77.1667 46.0131 77.58C45.2531 77.9933 44.3465 78.2 43.2931 78.2C42.0665 78.2 41.0065 77.9067 40.1131 77.32C39.2331 76.72 38.5531 75.88 38.0731 74.8C37.6065 73.7067 37.3731 72.4267 37.3731 70.96C37.3731 68.7067 37.8931 66.9533 38.9331 65.7C39.9865 64.4333 41.4531 63.8 43.3331 63.8C44.2131 63.8 45.0265 63.96 45.7731 64.28C46.5198 64.6 47.1131 65.0333 47.5531 65.58C47.9931 66.1133 48.2131 66.7067 48.2131 67.36C48.2131 67.7867 48.0998 68.1267 47.8731 68.38C47.6598 68.6333 47.3598 68.76 46.9731 68.76C46.6398 68.76 46.3598 68.6533 46.1331 68.44C45.9198 68.2267 45.8131 67.96 45.8131 67.64C45.8131 67.2533 45.9531 66.94 46.2331 66.7C45.9931 66.2867 45.6131 65.9667 45.0931 65.74C44.5731 65.5 43.9931 65.38 43.3531 65.38C40.5798 65.38 39.1931 67.2333 39.1931 70.94C39.1931 72.7667 39.5398 74.1733 40.2331 75.16C40.9398 76.1333 41.9798 76.62 43.3531 76.62C44.0998 76.62 44.7398 76.4667 45.2731 76.16C45.8198 75.8533 46.2731 75.38 46.6331 74.74C46.7531 74.5 46.8665 74.34 46.9731 74.26C47.0798 74.18 47.2198 74.14 47.3931 74.14ZM59.1492 76.42C59.5759 76.42 59.7892 76.6 59.7892 76.96V77.46C59.7892 77.82 59.5759 78 59.1492 78H57.5492C57.3492 78 57.1759 77.9333 57.0292 77.8C56.8959 77.6533 56.8292 77.4733 56.8292 77.26V76C56.5759 76.6267 56.1359 77.1533 55.5092 77.58C54.8959 77.9933 54.2426 78.2 53.5492 78.2C52.6159 78.2 51.8626 77.9333 51.2892 77.4C50.7159 76.8533 50.4292 76.1333 50.4292 75.24C50.4292 74.3067 50.7426 73.5867 51.3692 73.08C52.0092 72.5733 52.9159 72.32 54.0892 72.32C54.9826 72.32 55.8959 72.4267 56.8292 72.64V71.74C56.8292 70.9133 56.6359 70.3 56.2492 69.9C55.8626 69.5 55.2626 69.3 54.4492 69.3C53.8226 69.3 53.3559 69.42 53.0492 69.66C53.1426 69.82 53.1892 69.9933 53.1892 70.18C53.1892 70.4867 53.0826 70.7467 52.8692 70.96C52.6559 71.1733 52.3959 71.28 52.0892 71.28C51.7292 71.28 51.4426 71.1667 51.2292 70.94C51.0159 70.7133 50.9092 70.4067 50.9092 70.02C50.9092 69.3667 51.2492 68.8333 51.9292 68.42C52.6092 68.0067 53.4759 67.8 54.5292 67.8C55.8492 67.8 56.8559 68.1533 57.5492 68.86C58.2559 69.5667 58.6092 70.5667 58.6092 71.86V76.42H59.1492ZM53.9692 76.74C54.4759 76.74 54.9426 76.6067 55.3692 76.34C55.8092 76.06 56.1559 75.6933 56.4092 75.24C56.6759 74.7733 56.8159 74.2667 56.8292 73.72C56.2292 73.6267 55.4026 73.58 54.3492 73.58C52.9092 73.58 52.1892 74.1133 52.1892 75.18C52.1892 75.6733 52.3492 76.06 52.6692 76.34C52.9892 76.6067 53.4226 76.74 53.9692 76.74ZM66.1053 72.18C67.3586 72.54 68.2453 72.9533 68.7653 73.42C69.2853 73.8733 69.5453 74.48 69.5453 75.24C69.5453 75.8133 69.3786 76.3267 69.0453 76.78C68.712 77.22 68.2386 77.5667 67.6253 77.82C67.0253 78.0733 66.332 78.2 65.5453 78.2C64.3053 78.2 63.312 77.9667 62.5653 77.5C61.832 77.02 61.4653 76.4 61.4653 75.64C61.4653 75.2533 61.572 74.9467 61.7853 74.72C61.9986 74.4933 62.2853 74.38 62.6453 74.38C62.952 74.38 63.2053 74.4867 63.4053 74.7C63.6186 74.9133 63.7253 75.1733 63.7253 75.48C63.7253 75.76 63.6386 75.9867 63.4653 76.16C63.7853 76.6133 64.472 76.84 65.5253 76.84C66.2453 76.84 66.792 76.7133 67.1653 76.46C67.552 76.2067 67.7453 75.8667 67.7453 75.44C67.7453 75.16 67.6853 74.9333 67.5653 74.76C67.4453 74.5733 67.232 74.4133 66.9253 74.28C66.632 74.1333 66.1786 73.9733 65.5653 73.8C64.5653 73.52 63.7853 73.24 63.2253 72.96C62.6786 72.6667 62.2853 72.3467 62.0453 72C61.8053 71.64 61.6853 71.1933 61.6853 70.66C61.6853 70.1 61.852 69.6067 62.1853 69.18C62.5186 68.74 62.9786 68.4 63.5653 68.16C64.1653 67.92 64.8453 67.8 65.6053 67.8C66.792 67.8 67.7186 68.0133 68.3853 68.44C69.052 68.8533 69.3853 69.4333 69.3853 70.18C69.3853 70.5667 69.2786 70.88 69.0653 71.12C68.852 71.3467 68.572 71.46 68.2253 71.46C67.9053 71.46 67.6386 71.3533 67.4253 71.14C67.2253 70.9267 67.1253 70.66 67.1253 70.34C67.1253 70.06 67.212 69.8333 67.3853 69.66C67.092 69.3267 66.492 69.16 65.5853 69.16C64.9586 69.16 64.452 69.2933 64.0653 69.56C63.6786 69.8267 63.4853 70.1733 63.4853 70.6C63.4853 70.8267 63.5586 71.02 63.7053 71.18C63.852 71.34 64.1053 71.4933 64.4653 71.64C64.8386 71.7867 65.3853 71.9667 66.1053 72.18ZM81.5811 76.42C82.0078 76.42 82.2211 76.6 82.2211 76.96V77.46C82.2211 77.82 82.0078 78 81.5811 78H78.7411C78.3144 78 78.1011 77.82 78.1011 77.46V76.96C78.1011 76.6 78.3144 76.42 78.7411 76.42H79.2611V72.56C79.2611 71.4 79.1078 70.58 78.8011 70.1C78.5078 69.6067 78.0078 69.36 77.3011 69.36C76.8078 69.36 76.3278 69.5267 75.8611 69.86C75.4078 70.18 75.0344 70.6 74.7411 71.12C74.4611 71.64 74.3211 72.1867 74.3211 72.76V76.42H74.8411C75.2811 76.42 75.5011 76.6 75.5011 76.96V77.46C75.5011 77.82 75.2811 78 74.8411 78H72.0211C71.5811 78 71.3611 77.82 71.3611 77.46V76.96C71.3611 76.6 71.5811 76.42 72.0211 76.42H72.5411V64.78H72.0211C71.5811 64.78 71.3611 64.6 71.3611 64.24V63.74C71.3611 63.38 71.5811 63.2 72.0211 63.2H73.6011C73.8011 63.2 73.9678 63.2733 74.1011 63.42C74.2478 63.5533 74.3211 63.7267 74.3211 63.94V70.24C74.6144 69.5467 75.0811 68.9667 75.7211 68.5C76.3611 68.0333 77.0278 67.8 77.7211 67.8C78.8278 67.8 79.6611 68.18 80.2211 68.94C80.7811 69.6867 81.0611 70.8 81.0611 72.28V76.42H81.5811Z" fill="black"/>
<path d="M74.0607 32.0607C74.6464 31.4749 74.6464 30.5251 74.0607 29.9393L64.5147 20.3934C63.9289 19.8076 62.9792 19.8076 62.3934 20.3934C61.8076 20.9792 61.8076 21.9289 62.3934 22.5147L70.8787 31L62.3934 39.4853C61.8076 40.0711 61.8076 41.0208 62.3934 41.6066C62.9792 42.1924 63.9289 42.1924 64.5147 41.6066L74.0607 32.0607ZM23 32.5H73V29.5H23V32.5Z" fill="black"/>
<path d="M21.9393 86.9393C21.3536 87.5251 21.3536 88.4749 21.9393 89.0607L31.4853 98.6066C32.0711 99.1924 33.0208 99.1924 33.6066 98.6066C34.1924 98.0208 34.1924 97.0711 33.6066 96.4853L25.1213 88L33.6066 79.5147C34.1924 78.9289 34.1924 77.9792 33.6066 77.3934C33.0208 76.8076 32.0711 76.8076 31.4853 77.3934L21.9393 86.9393ZM73 86.5H23V89.5H73V86.5Z" fill="black"/>
</svg>
